<svg xmlns="http://www.w3.org/2000/svg" viewBox="0 0 115.24 28.24"><defs><style>.cls-1{fill:#fff;}.cls-2{fill:#06d7a0;}</style></defs><g id="Layer_2" data-name="Layer 2"><g id="Layer_1-2" data-name="Layer 1"><path class="cls-1" d="M94.49,5.29,91.21,22H85.73l.33-1.55a6.94,6.94,0,0,1-4.82,1.82,6.75,6.75,0,0,1-3.41-.88,7,7,0,0,1-2.61-2.62,7.86,7.86,0,0,1-1-4,10.08,10.08,0,0,1,1.2-4.91A8.61,8.61,0,0,1,78.7,6.37a8.86,8.86,0,0,1,4.48-1.28c2.41,0,4.09.74,5.09,2.29l.4-2h5.82Zm-8.43,10.9a4.92,4.92,0,0,0,1.07-3.36,3.13,3.13,0,0,0-.87-2.36A2.91,2.91,0,0,0,84,9.6a3.38,3.38,0,0,0-2.81,1.28,5.42,5.42,0,0,0-1.07,3.36A2.84,2.84,0,0,0,81,16.53a3.14,3.14,0,0,0,2.27.87,3.21,3.21,0,0,0,2.81-1.21"/><path class="cls-1" d="M115.24,5.29,104.6,22.72A18,18,0,0,1,102.06,26a7.4,7.4,0,0,1-2.55,1.69,8.91,8.91,0,0,1-3.14.54,8.77,8.77,0,0,1-2.61-.41,5.45,5.45,0,0,1-2.08-1.08l2.61-4.1a4,4,0,0,0,2.55.94,2.61,2.61,0,0,0,1.33-.33,4.3,4.3,0,0,0,1.07-1.15L95.5,5.36h5.75l2.08,10.23,6.09-10.23h5.82Z"/><path class="cls-1" d="M72.21,2.2A10.15,10.15,0,0,0,65.79.38h-9L55.68,5.9a13.16,13.16,0,0,1,5.16-1.08,12.42,12.42,0,0,1,5,1c.07,0,.14.07.27.14s.14.06.2.06a2.27,2.27,0,0,1,1.07,2,2.34,2.34,0,0,1-.7,1.65,2.31,2.31,0,0,0,.57-1.51,2.25,2.25,0,0,0-1.07-1.95c-.07,0-.14-.07-.2-.07S65.85,6,65.72,6h-.8A13,13,0,0,0,52.4,22.18c0-.12.06-.23.07-.35v.08h6l1.07-5.65h4.29a13,13,0,0,0,5.55-1.08A8.1,8.1,0,0,0,73.08,12a8.57,8.57,0,0,0,1.27-4.71A5.88,5.88,0,0,0,72.21,2.2ZM56.94,13.5l-.65.59Zm-4.42,8.09a13.28,13.28,0,0,1,2.15-5.54A12.52,12.52,0,0,0,53,19.69Zm3.08-6.74a12.61,12.61,0,0,0-.85,1.08A12.61,12.61,0,0,1,55.6,14.85Zm2.61-2.32.35-.24Zm9.05-4.48a.76.76,0,0,0-.13-.54,3.28,3.28,0,0,1,.26,1.15,2.26,2.26,0,0,1-2.07,2.28,12.85,12.85,0,0,0-12.65,11h-.2v-.13l.4-2a12.89,12.89,0,0,1,12.31-9.42,2.28,2.28,0,0,0,2.08-2.29"/><path class="cls-2" d="M18.7,17.94H9.25L6.67,22.25H0L14.25,0h6.19l5.35,22.25H19.54Zm-1-4.73L16.27,6.05,12,13.28h5.7Z"/><polygon class="cls-2" points="31.77 0 27.39 22.25 33.37 22.25 37.82 0 31.77 0"/><path class="cls-2" d="M46.3,10.15h3.89l.91-4.52H47.21l.34-1.88h0L48.32,0h-6l-.21,1.18h0l-.9,4.45H38.65l-.9,4.52h2.57l-1.18,5.63a5.68,5.68,0,0,0-.14,1.6,4.52,4.52,0,0,0,1.6,3.69,6.21,6.21,0,0,0,4.24,1.32,8.55,8.55,0,0,0,4.45-1.05l-.76-4.17a3.74,3.74,0,0,1-1.81.49c-1,0-1.6-.49-1.6-1.46a2.25,2.25,0,0,1,.07-.56Z"/><path class="cls-2" d="M65.7,10.36A2.35,2.35,0,0,0,67.85,8a2.32,2.32,0,0,0-1.11-2h0c-.07,0-.14-.07-.21-.07s-.14-.07-.28-.14h-.83A13.43,13.43,0,0,0,52,19.19a12.9,12.9,0,0,0,.42,3.34A13.41,13.41,0,0,1,65.7,10.36Z"/></g></g></svg>